<?xml version="1.0" encoding="utf-8" ?>
<svg xmlns="http://www.w3.org/2000/svg" xmlns:xlink="http://www.w3.org/1999/xlink" width="16" height="16" viewBox="0 0 16 16">
	<path transform="matrix(1 0 0 1 1.33333 2)" d="M10.1169 9.17563C11.8751 6.95148 11.7274 3.71349 9.6736 1.65973C7.46063 -0.553243 3.8727 -0.553243 1.65973 1.65973C-0.553243 3.8727 -0.553243 7.46063 1.65973 9.6736C3.71349 11.7274 6.95148 11.8751 9.17563 10.1169C9.18417 10.1265 9.19302 10.1358 9.2022 10.145L11.5592 12.502C11.8196 12.7624 12.2417 12.7624 12.502 12.502C12.7624 12.2417 12.7624 11.8196 12.502 11.5592L10.145 9.2022C10.1358 9.19302 10.1265 9.18417 10.1169 9.17563ZM8.7308 2.60254C10.4231 4.29481 10.4231 7.03853 8.7308 8.7308C7.03852 10.4231 4.29481 10.4231 2.60254 8.7308C0.910265 7.03852 0.910265 4.29481 2.60254 2.60254C4.29481 0.910266 7.03852 0.910265 8.7308 2.60254Z" fill-rule="evenodd" fill="rgb(0, 0, 0)" fill-opacity="0.40000001"/>
</svg>
