<?xml version="1.0" encoding="utf-8" ?>
<svg xmlns="http://www.w3.org/2000/svg" xmlns:xlink="http://www.w3.org/1999/xlink" width="20" height="20" viewBox="0 0 20 20">
	<path transform="matrix(1 0 0 1 3.27411 3.27411)" d="M6.72595 13.4518C6.26571 13.4518 5.89262 13.0787 5.89262 12.6184L5.89262 7.55928L0.833333 7.55928C0.373096 7.55928 0 7.18619 0 6.72595C0 6.26571 0.373096 5.89261 0.833333 5.89261L5.89262 5.89261L5.89262 0.833333C5.89261 0.373096 6.26571 0 6.72595 0C7.18619 0 7.55928 0.373096 7.55928 0.833333L7.55928 5.89261L12.6184 5.89261C13.0787 5.89261 13.4518 6.26571 13.4518 6.72595C13.4518 7.18618 13.0787 7.55928 12.6184 7.55928L7.55928 7.55928L7.55928 12.6184C7.55928 13.0787 7.18619 13.4518 6.72595 13.4518Z" fill-rule="evenodd" fill="rgb(255, 255, 255)"/>
</svg>
